Coordinates
version=1
nRows=20
nColumns=32
inDegrees=yes

Units are S.I. units (second, meters, Newtons, ...)
If the header above contains a line with 'inDegrees', this indicates whether rotational values are in degrees (yes) or radians (no).

endheader
time	pelvis_tilt	pelvis_list	pelvis_rotation	pelvis_tx	pelvis_ty	pelvis_tz	hip_flexion_r	hip_adduction_r	hip_rotation_r	knee_angle_r	knee_adduction_r	med_cond_adduction_r	lat_cond_adduction_r	patella_r_constrained_knee_angle	ankle_angle_r	subtalar_angle_r	mtp_angle_r	hip_flexion_l	hip_adduction_l	hip_rotation_l	knee_angle_l	knee_adduction_l	med_cond_adduction_l	lat_cond_adduction_l	patella_l_constrained_knee_angle	ankle_angle_l	subtalar_angle_l	mtp_angle_l	lumbar_extension	lumbar_bending	lumbar_rotation
      2.44000000	     -1.17391641	     14.70766384	    -82.86648148	      0.27464552	      0.83780596	     -1.12591018	     38.86803008	     -0.80007191	     35.59326636	     -3.75069615	     -0.00000000	     -0.00000000	      0.00000000	     -0.06546200	    -10.61758101	    -19.65728053	      0.00000000	      1.01603904	     -0.93784902	     -4.10263059	    -18.18792592	     -0.00000000	      0.00000000	     -0.00000000	     -0.31743919	     11.70566171	     15.98337613	     -0.00000000	     -0.00000000	     -0.00000000	      0.00000000
      2.44500000	     -1.38387547	     14.55523354	    -82.96335332	      0.27383031	      0.83785529	     -1.11836163	     38.48997490	     -0.33954125	     35.50558703	     -4.04455099	      0.00000000	     -0.00000000	      0.00000000	     -0.07059073	    -11.14362198	    -19.65289598	     -0.00000000	      0.65416953	     -1.34115397	     -4.17393528	    -18.61982530	      0.00000000	      0.00000000	     -0.00000000	     -0.32497726	     10.85726469	     15.99189802	     -0.00000000	     -0.00000000	     -0.00000000	      0.00000000
      2.45000000	     -1.58393587	     14.40073237	    -83.07308302	      0.27301160	      0.83801181	     -1.11077284	     38.10147726	      0.11302817	     35.40683105	     -4.32531140	     -0.00000000	      0.00000000	     -0.00000000	     -0.07549093	    -11.72846304	    -19.64618700	     -0.00000000	      0.31389748	     -1.73328508	     -4.25607077	    -19.07525762	     -0.00000000	     -0.00000000	      0.00000000	     -0.33292605	      9.85676953	     15.98351653	      0.00000000	     -0.00000000	     -0.00000000	     -0.00000000
      2.45500000	     -1.81019114	     14.25282274	    -83.19152218	      0.27217224	      0.83823135	     -1.10312930	     37.71799453	      0.59317177	     35.27951048	     -4.60968381	     -0.00000000	     -0.00000000	      0.00000000	     -0.08045416	    -12.32786920	    -19.63896104	     -0.00000000	      0.01394347	     -2.15040661	     -4.34659385	    -19.57209252	      0.00000000	      0.00000000	     -0.00000000	     -0.34159746	      8.78588133	     15.95350881	     -0.00000000	     -0.00000000	     -0.00000000	     -0.00000000
      2.46000000	     -1.99577184	     14.11380999	    -83.35660340	      0.27125747	      0.83850529	     -1.09545241	     37.33784998	      1.05895444	     35.17198960	     -4.88504982	     -0.00000000	     -0.00000000	      0.00000000	     -0.08526020	    -12.92278318	    -19.62837374	      0.00000000	     -0.25280944	     -2.52476583	     -4.48223683	    -20.10988479	     -0.00000000	     -0.00000000	      0.00000000	     -0.35098370	      7.61313752	     15.88085204	      0.00000000	     -0.00000000	     -0.00000000	     -0.00000000
      2.46500000	     -2.19258104	     13.97370730	    -83.52386831	      0.27038091	      0.83887642	     -1.08774087	     36.95288718	      1.52624925	     35.02401334	     -5.16243912	      0.00000000	      0.00000000	     -0.00000000	     -0.09010156	    -13.52260976	    -19.61700012	      0.00000000	     -0.48973995	     -2.90042043	     -4.59007899	    -20.67689107	     -0.00000000	     -0.00000000	      0.00000000	     -0.36087983	      6.33661703	     15.77645526	      0.00000000	     -0.00000000	     -0.00000000	     -0.00000000
      2.47000000	     -2.37022475	     13.81299409	    -83.72813409	      0.26946738	      0.83937548	     -1.07998975	     36.53773443	      1.99201264	     34.88998122	     -5.44500747	      0.00000000	      0.00000000	     -0.00000000	     -0.09503331	    -14.08811814	    -19.60365772	      0.00000000	     -0.72023576	     -3.25569312	     -4.74654331	    -21.26825249	     -0.00000000	      0.00000000	      0.00000000	     -0.37120103	      4.91143597	     15.59987968	     -0.00000000	     -0.00000000	     -0.00000000	     -0.00000000
      2.47500000	     -2.56140228	     13.67667719	    -83.90609761	      0.26856984	      0.83991178	     -1.07219639	     36.14002244	      2.45001735	     34.68729865	     -5.72610523	      0.00000000	     -0.00000000	      0.00000000	     -0.09993939	    -14.59369605	    -19.58749628	      0.00000000	     -0.87398653	     -3.62895794	     -4.90343067	    -21.92454642	      0.00000000	      0.00000000	     -0.00000000	     -0.38265552	      3.41623929	     15.45938301	      0.00000000	     -0.00000000	     -0.00000000	     -0.00000000
      2.48000000	     -2.73201356	     13.52033126	    -84.12631577	      0.26765233	      0.84056333	     -1.06437974	     35.71806649	      2.90680961	     34.49443708	     -6.01871443	     -0.00000000	      0.00000000	     -0.00000000	     -0.10504638	    -15.04585321	    -19.56805396	      0.00000000	     -1.02168866	     -3.97463919	     -5.08757541	    -22.60353676	      0.00000000	     -0.00000000	      0.00000000	     -0.39450614	      1.79854052	     15.25683073	     -0.00000000	     -0.00000000	     -0.00000000	     -0.00000000
      2.48500000	     -2.87537900	     13.36640851	    -84.35975699	      0.26675596	      0.84129044	     -1.05655014	     35.28973788	      3.33507631	     34.28140648	     -6.31795179	     -0.00000000	     -0.00000000	      0.00000000	     -0.11026906	    -15.42302271	    -19.54577690	     -0.00000000	     -1.12995166	     -4.28052971	     -5.26273662	    -23.31844543	      0.00000000	      0.00000000	     -0.00000000	     -0.40698365	      0.10136981	     14.96012510	     -0.00000000	     -0.00000000	     -0.00000000	     -0.00000000
      2.49000000	     -3.00304300	     13.19763470	    -84.61348835	      0.26586694	      0.84211697	     -1.04870170	     34.83664229	      3.75211266	     34.05408325	     -6.62051366	      0.00000000	      0.00000000	     -0.00000000	     -0.11554976	    -15.71347254	    -19.51785650	     -0.00000000	     -1.21967894	     -4.56784761	     -5.45839610	    -24.06264187	      0.00000000	     -0.00000000	      0.00000000	     -0.41997233	     -1.69089578	     14.64686370	     -0.00000000	     -0.00000000	     -0.00000000	     -0.00000000
      2.49500000	     -3.11236917	     13.02419075	    -84.88423630	      0.26500222	      0.84302072	     -1.04083869	     34.37073865	      4.15278779	     33.80731478	     -6.93127680	     -0.00000000	     -0.00000000	      0.00000000	     -0.12097360	    -15.92854126	    -19.48753286	     -0.00000000	     -1.27886596	     -4.82231743	     -5.65677752	    -24.83462604	     -0.00000000	      0.00000000	     -0.00000000	     -0.43344599	     -3.58159673	     14.19920678	      0.00000000	      0.00000000	      0.00000000	     -0.00000000
      2.50000000	     -3.21676096	     12.83583150	    -85.13389736	      0.26415833	      0.84401231	     -1.03297370	     33.87724814	      4.53442783	     33.51319296	     -7.24512769	     -0.00000000	     -0.00000000	      0.00000000	     -0.12645133	    -16.01343000	    -19.44782862	     -0.00000000	     -1.30108222	     -5.08488688	     -5.87017306	    -25.65783020	     -0.00000000	      0.00000000	     -0.00000000	     -0.44781362	     -5.49947433	     13.79054115	     -0.00000000	     -0.00000000	      0.00000000	     -0.00000000
      2.50500000	     -3.25698432	     12.63662761	    -85.46589001	      0.26332246	      0.84508154	     -1.02513527	     33.36893622	      4.88287523	     33.26028157	     -7.56644336	      0.00000000	      0.00000000	     -0.00000000	     -0.13205935	    -16.02929414	    -19.39858278	      0.00000000	     -1.31741774	     -5.25438861	     -6.12188524	    -26.48749999	     -0.00000000	      0.00000000	     -0.00000000	     -0.46229409	     -7.50152794	     13.24959962	     -0.00000000	      0.00000000	      0.00000000	      0.00000000
      2.51000000	     -3.29686798	     12.40455682	    -85.76149201	      0.26250348	      0.84625334	     -1.01729493	     32.81218891	      5.21305763	     32.95218568	     -7.89241625	     -0.00000000	     -0.00000000	      0.00000000	     -0.13774865	    -15.90766455	    -19.33570753	     -0.00000000	     -1.32132227	     -5.43370261	     -6.34355642	    -27.35035034	     -0.00000000	     -0.00000000	      0.00000000	     -0.47735367	     -9.47491578	     12.70081960	      0.00000000	      0.00000000	      0.00000000	      0.00000000
      2.51500000	     -3.27854427	     12.24301209	    -86.07527977	      0.26176339	      0.84741459	     -1.00954951	     32.33081313	      5.47603234	     32.65174420	     -8.22866400	     -0.00000000	     -0.00000000	      0.00000000	     -0.14361728	    -15.72871844	    -19.25824025	      0.00000000	     -1.20526004	     -5.52142852	     -6.54048758	    -28.24063784	      0.00000000	      0.00000000	     -0.00000000	     -0.49289211	    -11.47994993	     11.97720129	      0.00000000	      0.00000000	      0.00000000	      0.00000000
      2.52000000	     -3.23681235	     12.03103248	    -86.41339571	      0.26101130	      0.84868424	     -1.00180913	     31.78722640	      5.72570744	     32.33488967	     -8.57276782	     -0.00000000	      0.00000000	     -0.00000000	     -0.14962302	    -15.44906863	    -19.15503948	      0.00000000	     -1.11064735	     -5.58514308	     -6.76518423	    -29.15519086	      0.00000000	      0.00000000	     -0.00000000	     -0.50885407	    -13.43515499	     11.23293548	      0.00000000	      0.00000000	      0.00000000	     -0.00000000
      2.52500000	     -3.15579149	     11.81506043	    -86.75619083	      0.26030494	      0.85001097	     -0.99413694	     31.23512839	      5.92735947	     31.99805580	     -8.92352207	     -0.00000000	      0.00000000	     -0.00000000	     -0.15574484	    -15.07803411	    -19.01829002	     -0.00000000	     -0.97682324	     -5.59468198	     -6.97164094	    -30.09631664	     -0.00000000	     -0.00000000	      0.00000000	     -0.52527982	    -15.33848061	     10.38597247	      0.00000000	     -0.00000000	      0.00000000	     -0.00000000
      2.53000000	     -3.02986639	     11.61877004	    -87.10620838	      0.25962929	      0.85136809	     -0.98653362	     30.70398674	      6.07557291	     31.64006889	     -9.28272246	     -0.00000000	     -0.00000000	      0.00000000	     -0.16201407	    -14.63380362	    -18.82854643	     -0.00000000	     -0.77740866	     -5.54582847	     -7.16012998	    -31.06697527	     -0.00000000	     -0.00000000	      0.00000000	     -0.54222101	    -17.13621623	      9.50202477	      0.00000000	      0.00000000	      0.00000000	     -0.00000000
      2.53500000	     -2.86368978	     11.40907822	    -87.46425366	      0.25900092	      0.85278597	     -0.97900883	     30.15735432	      6.17408450	     31.26109708	     -9.65131721	      0.00000000	      0.00000000	     -0.00000000	     -0.16844726	    -14.08481957	    -18.55636629	      0.00000000	     -0.55192868	     -5.44186319	     -7.34278226	    -32.05699638	      0.00000000	      0.00000000	     -0.00000000	     -0.55950014	    -18.83730830	      8.53970203	     -0.00000000	      0.00000000	      0.00000000	     -0.00000000
